<svg xmlns="http://www.w3.org/2000/svg" viewBox="0 0 1200 675" role="img" aria-labelledby="title">
  <title id="title">Four early wedding planning decisions</title>
  <rect width="1200" height="675" rx="32" fill="#f7f1e8"/>
  <rect x="88" y="74" width="1024" height="527" rx="28" fill="#fffdf9"/>
  <path d="M144 157h910M144 157v378h910V157" fill="none" stroke="#d9cdb9" stroke-width="4"/>
  <rect x="190" y="192" width="730" height="276" rx="18" fill="#fff" stroke="#e5d9c8" stroke-width="3"/>
  <text x="555" y="243" text-anchor="middle" fill="#263238" font-family="Arial,sans-serif" font-size="32" font-weight="700">FIRST 72 HOURS</text>
  <g font-family="Arial,sans-serif" font-size="25" fill="#263238">
    <rect x="250" y="278" width="30" height="30" rx="5" fill="#fcecf0" stroke="#b76e79" stroke-width="3"/><path d="m257 293 7 7 12-15" fill="none" stroke="#668874" stroke-width="4"/><text x="300" y="302">Total budget</text>
    <rect x="250" y="331" width="30" height="30" rx="5" fill="#fcecf0" stroke="#b76e79" stroke-width="3"/><path d="m257 346 7 7 12-15" fill="none" stroke="#668874" stroke-width="4"/><text x="300" y="355">Guest count</text>
    <rect x="250" y="384" width="30" height="30" rx="5" fill="#fcecf0" stroke="#b76e79" stroke-width="3"/><path d="m257 399 7 7 12-15" fill="none" stroke="#668874" stroke-width="4"/><text x="300" y="408">Date flexibility</text>
    <rect x="580" y="278" width="30" height="30" rx="5" fill="#fcecf0" stroke="#b76e79" stroke-width="3"/><path d="m587 293 7 7 12-15" fill="none" stroke="#668874" stroke-width="4"/><text x="630" y="302">Top three</text>
    <text x="630" y="335" font-size="18" fill="#6f7476">priorities</text>
  </g>
  <rect x="948" y="227" width="110" height="111" rx="14" fill="#e7f0e8"/>
  <path d="M966 249h75M966 268h75M966 287h45" stroke="#668874" stroke-width="7" stroke-linecap="round"/>
  <text x="1003" y="374" text-anchor="middle" fill="#668874" font-family="Arial,sans-serif" font-size="18" font-weight="700">PLAN</text>
  <ellipse cx="994" cy="486" rx="61" ry="18" fill="#d7c9b4"/>
  <path d="M950 462h88l-12 24h-64z" fill="#fff" stroke="#9b8066" stroke-width="4"/>
  <path d="M960 458c-7-22 23-29 11-51 28 12 15 28 29 35 6-17 20-19 19-39 25 29 12 48 4 55" fill="#fff" stroke="#9b8066" stroke-width="4"/>
  <text x="600" y="561" text-anchor="middle" fill="#8d6c40" font-family="Arial,sans-serif" font-size="22">Decide together, then start booking</text>
</svg>
